# xmcd CD database file
#
# Track frame offsets:
#	150
#	14886
#	29414
#	43861
#	56678
#	72259
#	86446
#	103252
#	117903
#	132999
#	149762
#	166140
#	197124
#	214192
#	228222
#	242750
#	256992
#	273526
#
# Disc length: 3838 seconds
#
# Revision: 0
# Processed by: cddbd v1.5.2PL0 Copyright (c) Steve Scherf et al.
# Submitted via: CDex 1.51
#
DISCID=150efc12
DTITLE=Bessie Smith - Empress of the Blues
DYEAR=2000
DGENRE=Blues
TTITLE0=Alexander's Ragtime Band
TTITLE1=New Orleans Hop Scop Blues
TTITLE2=Nobody Knows You When You're Down and Out 
TTITLE3=Take Me for a Buggy Ride
TTITLE4=Cool Hand Blues
TTITLE5=One and Two Blues
TTITLE6=Careless Love Blues
TTITLE7=A Good Man is Hard to Find
TTITLE8=St Louis Blues
TTITLE9=Do Your Duty
TTITLE10=Down Hearted Blues
TTITLE11=Empty Bed Blues
TTITLE12=Gimme a Pigfoot
TTITLE13=Nobody's Blues but Mine
TTITLE14=Yellow Dog Blues
TTITLE15=Squeeze Me
TTITLE16=Send Me to the Electric Chair
TTITLE17=Them's Graveyard Words
EXTD=YEAR: 2000
EXTT0=
EXTT1=
EXTT2=
EXTT3=
EXTT4=
EXTT5=
EXTT6=
EXTT7=
EXTT8=
EXTT9=
EXTT10=
EXTT11=
EXTT12=
EXTT13=
EXTT14=
EXTT15=
EXTT16=
EXTT17=
PLAYORDER=
